# xmcd
#
# Track frame offsets:
#	150
#	43536
#	65682
#	114417
#	143530
#	181809
#	220570
#	242104
#
# Disc length: 4584 seconds
#
# Revision: 2
# Processed by: cddbd v1.5.2PL0 Copyright (c) Steve Scherf et al.
# Submitted via: audiograbber 1.83.01
#
DISCID=6811e608
DTITLE=Endless Boogie - Full House Head
DYEAR=2010
DGENRE=Blues
TTITLE0=Empty Eye
TTITLE1=Tarmac City
TTITLE2=Slow Creep
TTITLE3=Mighty Fine Pie
TTITLE4=Top Dollar Speaks His Mind
TTITLE5=Pack Your Bags
TTITLE6=New Pair Of Shoes
TTITLE7=A Life Worth Leaving
EXTD=
EXTT0=
EXTT1=
EXTT2=
EXTT3=
EXTT4=
EXTT5=
EXTT6=
EXTT7=
PLAYORDER=
